<svg width="45" height="33" viewBox="0 0 45 33" fill="none" xmlns="http://www.w3.org/2000/svg">
<path d="M29.445 16.9755C31.2766 15.9428 32.6117 14.5299 33.2645 12.9335C33.9173 11.3371 33.8553 9.63645 33.0872 8.06824C32.319 6.50004 30.883 5.14222 28.9787 4.1837C27.0745 3.22518 24.7967 2.71362 22.4625 2.72019C20.1282 2.72675 17.8534 3.25112 15.9545 4.22034C14.0557 5.18956 12.6273 6.55544 11.868 8.12794C11.1087 9.70044 11.0563 11.4014 11.718 12.9941C12.3798 14.5868 13.7228 15.9921 15.5603 17.0145C12.4192 17.92 9.68055 19.4148 7.63619 21.3396C5.59183 23.2645 4.31842 25.5472 3.95173 27.9444C3.92519 28.1194 3.94732 28.2964 4.01687 28.4652C4.08641 28.634 4.20199 28.7913 4.35703 28.9282C4.67013 29.2046 5.12491 29.3809 5.6213 29.4184C6.1177 29.4559 6.61506 29.3514 7.00396 29.128C7.39287 28.9045 7.64146 28.5804 7.69506 28.2269C8.09863 25.6217 9.83606 23.2117 12.5754 21.4575C15.3147 19.7033 18.8639 18.7278 22.5449 18.7174C26.2258 18.7071 29.7804 19.6626 32.5296 21.4013C35.2788 23.1401 37.0297 25.5403 37.448 28.1432C37.4998 28.4704 37.72 28.7721 38.0662 28.9901C38.4124 29.2081 38.86 29.3269 39.3226 29.3236L39.5284 29.323C40.0188 29.2815 40.4666 29.1036 40.7743 28.8283C41.082 28.5529 41.2246 28.2024 41.171 27.853C40.789 25.4511 39.4959 23.1698 37.4302 21.2535C35.3645 19.3373 32.6041 17.8585 29.445 16.9755ZM22.4999 16.0492C21.0196 16.0533 19.5715 15.7449 18.339 15.1628C17.1064 14.5808 16.1447 13.7512 15.5754 12.7791C15.0062 11.8071 14.8549 10.7361 15.1408 9.70158C15.4267 8.66711 16.137 7.71563 17.1817 6.96746C18.2264 6.21929 19.5586 5.70803 21.01 5.49834C22.4614 5.28864 23.9667 5.38994 25.3355 5.7894C26.7043 6.18887 27.8753 6.86857 28.7002 7.74255C29.5251 8.61653 29.967 9.64554 29.97 10.6994C29.9739 12.1127 29.1892 13.4703 27.7883 14.4735C26.3874 15.4768 24.4851 16.0436 22.4999 16.0492Z" fill="white"/>
</svg>
