<svg width="46" height="48" viewBox="0 0 46 48" fill="none" xmlns="http://www.w3.org/2000/svg">
<path d="M30.4263 25.3022C32.2567 23.8136 33.59 21.7755 34.2408 19.4716C34.8916 17.1677 34.8275 14.7125 34.0574 12.4475C33.2873 10.1825 31.8495 8.22047 29.9441 6.83429C28.0386 5.4481 25.7602 4.70672 23.426 4.71329C21.0917 4.71986 18.8175 5.47404 16.9199 6.87093C15.0223 8.26781 13.5955 10.2379 12.8382 12.5072C12.0809 14.7764 12.0306 17.232 12.6943 19.5322C13.3581 21.8325 14.7028 23.863 16.5416 25.3413C13.4017 26.6446 10.6648 28.7992 8.62288 31.5755C6.58091 34.3518 5.31035 37.6458 4.94665 41.1061C4.92033 41.3588 4.94268 41.6143 5.01244 41.8581C5.08219 42.1018 5.19797 42.3291 5.35318 42.5269C5.66663 42.9264 6.12163 43.1815 6.61807 43.2363C7.11452 43.291 7.61174 43.1408 8.00037 42.8187C8.389 42.4966 8.63719 42.029 8.69035 41.5187C9.09067 37.758 10.8251 34.2809 13.5623 31.7518C16.2994 29.2227 19.8474 27.8188 23.5284 27.8085C27.2093 27.7981 30.7651 29.182 33.5165 31.6957C36.2678 34.2093 38.0218 37.6766 38.4433 41.435C38.4955 41.9075 38.7161 42.3433 39.0625 42.6584C39.409 42.9736 39.8567 43.1456 40.3193 43.1414L40.5252 43.1409C41.0155 43.0815 41.4631 42.8253 41.7705 42.4282C42.0778 42.031 42.2199 41.5251 42.1659 41.0207C41.781 37.5526 40.485 34.2574 38.4169 31.4884C36.3488 28.7194 33.5865 26.5809 30.4263 25.3022V25.3022ZM23.4801 23.9563C21.9997 23.9604 20.5513 23.5133 19.318 22.6715C18.0847 21.8296 17.122 20.6308 16.5515 19.2267C15.981 17.8226 15.8284 16.2762 16.113 14.7831C16.3976 13.29 17.1067 11.9173 18.1504 10.8384C19.1942 9.75962 20.5259 9.02319 21.977 8.72227C23.4281 8.42135 24.9335 8.56946 26.3028 9.14787C27.6722 9.72629 28.844 10.709 29.67 11.9718C30.496 13.2346 30.9392 14.7207 30.9435 16.2422C30.9492 18.2825 30.1661 20.2415 28.7664 21.6882C27.3668 23.1348 25.4652 23.9507 23.4801 23.9563Z" fill="white"/>
</svg>
